<svg version="1.1" id="Layer_1" xmlns="http://www.w3.org/2000/svg" xmlns:xlink="http://www.w3.org/1999/xlink" x="0px" y="0px"
	 width="100%" viewBox="0 0 255 255" enable-background="new 0 0 255 255" xml:space="preserve">
<path fill="#070707" opacity="1.000000" stroke="none"
	d="
M127.848869,22.826412 
	C141.702103,11.120604 159.933899,15.513134 168.562393,27.888811 
	C177.639542,40.907982 174.101639,58.822922 160.843613,67.444862 
	C150.659653,74.067680 138.724091,72.897255 126.434334,63.971241 
	C125.382874,64.958923 124.283539,65.950943 123.228905,66.988403 
	C109.340729,80.650421 95.458824,94.318810 81.536430,108.023895 
	C90.729919,120.628662 90.513000,132.685013 81.960480,144.899612 
	C96.865425,159.286316 111.681030,173.586777 126.452980,187.845108 
	C140.071533,177.996796 149.504898,177.517914 163.617538,186.168900 
	C175.979004,173.385727 188.873367,160.858795 200.683411,147.381699 
	C204.588928,142.924911 206.499954,136.207230 207.915176,130.192078 
	C210.558731,118.956085 207.450180,108.416336 201.679367,98.642403 
	C198.082443,92.550323 194.330933,86.549530 190.217896,79.800735 
	C227.617752,95.634781 233.622513,130.973328 213.578232,155.981094 
	C202.049240,170.364944 188.558319,183.186081 175.789276,196.556656 
	C173.627396,198.820419 172.755875,200.780655 173.240128,203.975327 
	C175.748779,220.525253 163.941132,235.020462 147.411575,236.002853 
	C130.980087,236.979385 117.445297,223.808655 118.064445,207.127197 
	C118.194122,203.633224 117.273468,201.220474 114.783661,198.827301 
	C100.008690,184.625900 85.417618,170.232681 70.584801,156.092682 
	C69.213860,154.785782 66.515190,154.120499 64.547142,154.314560 
	C52.876122,155.465363 43.355766,151.738007 36.964558,141.865326 
	C30.492317,131.867462 30.504932,121.280090 36.953724,111.269096 
	C43.425537,101.222366 53.009930,97.301559 64.907700,98.641991 
	C66.739433,98.848358 69.317474,98.324860 70.543411,97.116936 
	C85.497803,82.382256 100.335320,67.526024 114.982994,52.486904 
	C116.702721,50.721222 117.912270,47.697693 117.978958,45.220150 
	C118.215279,36.440250 120.746674,28.877508 127.848869,22.826412 
M157.706375,208.392029 
	C156.667343,200.947479 153.307861,197.015747 147.350845,196.272568 
	C141.927963,195.596039 136.889786,198.543060 134.966721,203.516510 
	C132.474899,209.960907 135.886749,217.185822 142.380219,219.215286 
	C149.511246,221.444046 155.607590,217.430084 157.706375,208.392029 
M156.866806,48.114506 
	C158.471985,43.076351 157.684555,38.546177 153.695435,34.922237 
	C150.361069,31.893093 146.393051,31.092171 142.092422,32.525143 
	C137.362991,34.100990 134.109375,38.660858 134.141907,43.492092 
	C134.178238,48.887161 137.731110,53.639221 142.763428,55.023594 
	C148.206390,56.520935 152.934509,54.392086 156.866806,48.114506 
M52.298386,117.743225 
	C48.063869,123.006836 47.517551,128.653259 50.801735,133.211700 
	C54.042393,137.709747 59.847595,139.363235 65.006950,137.257736 
	C69.923416,135.251389 72.701836,130.255920 71.965157,124.747337 
	C70.753265,115.685394 61.548828,112.056381 52.298386,117.743225 
z"/>
<path fill="#070707" opacity="1.000000" stroke="none" 
	d="
M167.049316,93.178940 
	C170.502960,89.897217 173.353241,90.161385 176.064087,93.643265 
	C177.079880,94.947952 178.254776,96.205994 179.583481,97.174896 
	C183.129471,99.760696 182.721375,102.280136 180.255737,105.499031 
	C176.554779,110.330650 178.882507,116.063354 184.869888,117.013870 
	C189.230469,117.706139 192.099228,119.171997 191.106720,124.321083 
	C190.828110,125.766380 190.878815,127.338753 191.100266,128.804214 
	C191.638611,132.366852 190.130096,133.862595 186.653870,134.452286 
	C183.956329,134.909882 180.844284,134.538239 179.429489,138.469238 
	C178.280792,141.660873 177.950882,144.037979 180.379837,146.511612 
	C183.232620,149.416901 182.650787,152.030701 179.676605,154.485794 
	C178.656342,155.327988 177.684204,156.297989 176.925659,157.375473 
	C173.925781,161.636612 170.945877,162.045425 166.806702,158.453384 
	C162.938217,155.096252 157.235352,157.662842 155.967422,162.663376 
	C155.386276,164.955353 154.556656,168.826889 153.354584,169.024033 
	C149.004929,169.737396 144.408966,169.489700 140.005386,168.883102 
	C139.111343,168.759933 138.374695,165.546371 138.039520,163.672714 
	C136.958542,157.629669 131.329575,154.861542 126.757233,158.662949 
	C122.726555,162.014023 119.837036,161.515244 116.954590,157.502243 
	C116.087059,156.294434 115.009087,155.211990 113.907310,154.203445 
	C111.415810,151.922791 111.170387,149.773148 113.231911,146.848282 
	C117.457390,140.853256 115.437958,136.080246 108.139877,134.875763 
	C104.029411,134.197372 102.253815,132.358215 102.864922,128.222244 
	C103.009338,127.244881 102.879013,126.226891 102.874687,125.227585 
	C102.843033,117.921288 102.842995,117.921280 109.931396,116.723564 
	C114.298996,115.985573 117.276596,109.997719 114.432693,106.725555 
	C110.647537,102.370399 111.556023,99.150497 115.513008,95.867889 
	C116.534317,95.020645 117.506477,94.078278 118.342461,93.050476 
	C120.533546,90.356628 122.617622,90.237259 125.545708,92.311356 
	C131.355515,96.426727 136.809433,94.222168 137.872986,87.314278 
	C138.500412,83.239082 140.139755,81.327911 144.352295,81.965065 
	C145.492035,82.137459 146.707123,82.152649 147.841248,81.962875 
	C153.095367,81.083672 155.287491,83.540382 156.007599,88.554344 
	C156.669907,93.165718 162.603012,95.623993 167.049316,93.178940 
M135.212265,109.546356 
	C126.371773,117.134155 124.404129,126.630447 129.803253,135.651352 
	C134.725433,143.875366 144.865982,147.376953 153.608704,143.871490 
	C164.603256,139.463150 169.464417,127.580276 164.496674,117.256355 
	C159.163727,106.173500 147.173187,102.769539 135.212265,109.546356 
z"/>
<path fill="#F5F5F5" opacity="1.000000" stroke="none" 
	d="
M157.676605,208.777740 
	C155.607590,217.430084 149.511246,221.444046 142.380219,219.215286 
	C135.886749,217.185822 132.474899,209.960907 134.966721,203.516510 
	C136.889786,198.543060 141.927963,195.596039 147.350845,196.272568 
	C153.307861,197.015747 156.667343,200.947479 157.676605,208.777740 
z"/>
<path fill="#F4F5F5" opacity="1.000000" stroke="none" 
	d="
M156.712997,48.463253 
	C152.934509,54.392086 148.206390,56.520935 142.763428,55.023594 
	C137.731110,53.639221 134.178238,48.887161 134.141907,43.492092 
	C134.109375,38.660858 137.362991,34.100990 142.092422,32.525143 
	C146.393051,31.092171 150.361069,31.893093 153.695435,34.922237 
	C157.684555,38.546177 158.471985,43.076351 156.712997,48.463253 
z"/>
<path fill="#F7F7F7" opacity="1.000000" stroke="none" 
	d="
M52.596268,117.485733 
	C61.548828,112.056381 70.753265,115.685394 71.965157,124.747337 
	C72.701836,130.255920 69.923416,135.251389 65.006950,137.257736 
	C59.847595,139.363235 54.042393,137.709747 50.801735,133.211700 
	C47.517551,128.653259 48.063869,123.006836 52.596268,117.485733 
z"/>
<path fill="#F9F9F9" opacity="1.000000" stroke="none" 
	d="
M135.515991,109.330864 
	C147.173187,102.769539 159.163727,106.173500 164.496674,117.256355 
	C169.464417,127.580276 164.603256,139.463150 153.608704,143.871490 
	C144.865982,147.376953 134.725433,143.875366 129.803253,135.651352 
	C124.404129,126.630447 126.371773,117.134155 135.515991,109.330864 
z"/>
</svg>