<svg id="Capa_1" data-name="Capa 1" xmlns="http://www.w3.org/2000/svg" viewBox="0 0 345.02 176.31"><title>LOGO COLOMBINA azul fondo oscuro</title><path d="M479.41,225.77l-32.29-49.33a10.71,10.71,0,0,0-18.48,0L419.76,190c-1.27,0-3.61-.06-6.94-.06-33,0-162.19,2.84-274.65,44.72l-.26.1-.25.09-.25.1-.26.09-.25.09v1.35l.17,88.15v2.8l.52-.2.52-.2.53-.19.52-.2.52-.19C250.46,285,373.52,281.59,410.92,281.59c5.21,0,8.71.07,10.33.11L428.64,293a10.73,10.73,0,0,0,18.48,0l32.28-49.34A17.16,17.16,0,0,0,479.41,225.77Z" transform="translate(-136.9 -171.15)" style="fill:#fff"/><path d="M396.65,243.57a17,17,0,0,1,0-17.72l18.95-29c-134.67.48-233.69,28.92-271.8,43l.16,77.76c38.23-14.15,137.55-43.12,273.18-42.72Z" transform="translate(-136.9 -171.15)" style="fill:#22357f"/><path d="M226.42,275l-6.4,1.4c-.32,0-7.91-.27-7.94-12.23,0-6.86,0-18.75,0-24.68a6.93,6.93,0,0,0-1.59-4.51l10-2.31,0,29.23c0,10.84,5.88,13.1,5.88,13.1" transform="translate(-136.9 -171.15)" style="fill:#fff"/><path d="M238.7,265.87a3,3,0,0,1-2.15,2.53,1.67,1.67,0,0,1-2.19-1.44,37.05,37.05,0,0,1-1-9.42,42.36,42.36,0,0,1,1-9.84,2.86,2.86,0,0,1,2.19-2.47,1.66,1.66,0,0,1,2.23,1.39,48.11,48.11,0,0,1,.73,9.6,46.53,46.53,0,0,1-.76,9.65m6.54-23.71q-2.7-3.45-8.91-2a13.08,13.08,0,0,0-8.66,6.1c-1.86,3.13-2.78,7.55-2.78,13.23s1,9.47,2.88,11.8,4.79,3,8.6,2.15a13.33,13.33,0,0,0,8.72-6c1.89-3.09,2.81-7.56,2.81-13.35C247.9,248.43,247,244.45,245.24,242.16Z" transform="translate(-136.9 -171.15)" style="fill:#fff"/><path d="M199.66,274.78a3,3,0,0,1-2.15,2.55,1.69,1.69,0,0,1-2.19-1.46,36.15,36.15,0,0,1-1-9.4,43.13,43.13,0,0,1,1-9.85,2.9,2.9,0,0,1,2.19-2.47,1.67,1.67,0,0,1,2.24,1.39,47.63,47.63,0,0,1,.72,9.6,46.66,46.66,0,0,1-.75,9.64m6.53-23.69q-2.69-3.47-8.9-2a13.13,13.13,0,0,0-8.66,6.1c-1.86,3.14-2.79,7.54-2.79,13.23,0,5.52,1,9.47,2.89,11.8s4.8,3,8.6,2.15a13.38,13.38,0,0,0,8.72-6c1.9-3.11,2.81-7.57,2.81-13.37C208.86,257.34,208,253.38,206.19,251.09Z" transform="translate(-136.9 -171.15)" style="fill:#fff"/><path d="M274.63,239.56v26.58l-8.45,1.34,0-24.34a2.25,2.25,0,0,0-1-2.11c-.94-.47-3-.16-4.42.65l0,26.7-8.48,1.49s0-15.05,0-19.85c0-10.05-4.81-11.61-4.81-11.61L259,236.34l.75,1.67a14.92,14.92,0,0,1,9.1-3.12,5,5,0,0,1,4.17,1.89c2.84-3.41,8.63-5.12,12.54-3.18,2.46,1.2,2.87,3.74,2.87,5.52,0,0,0,11.43,0,16.93,0,6.89,2.2,7.69,2.2,7.69L280,265.3l0-24.38a2.19,2.19,0,0,0-1.39-2.21,5.28,5.28,0,0,0-4,.85" transform="translate(-136.9 -171.15)" style="fill:#fff"/><path d="M341.67,227.24l-.61-1.45-6.84.73,0,32.34,8.46-.7L342.68,231c2.19-.88,3.84-.77,4.64-.35a2.28,2.28,0,0,1,1.09,2.19l.07,24.83,11-.71s-2.59-1.73-2.61-7.23c0-2.44,0-17.94,0-17.94,0-3.79-1.89-6.14-4.91-6.75a14.07,14.07,0,0,0-10.28,2.19" transform="translate(-136.9 -171.15)" style="fill:#fff"/><path d="M329.08,259.35l-8.45.83s0-22.38,0-23.81c0-6.83-2.58-8.21-2.58-8.21L329,227" transform="translate(-136.9 -171.15)" style="fill:#fff"/><path d="M330.52,216a24.57,24.57,0,0,0-5.82,8.13s-1.83-4.81-5.84-7.14a22.46,22.46,0,0,0,5.77-7.82,18.58,18.58,0,0,0,5.89,6.83" transform="translate(-136.9 -171.15)" style="fill:#fff"/><path d="M315.93,242.94c0,6.39-.22,11-3.17,15.12-3.29,4.31-11,5.73-15.31,4.24-4.2-1.25-4-5.32-4.13-7.06,0,0,.13-27,.13-29.55a7.85,7.85,0,0,0-2.2-5.62l10.57-1.36,0,12.6c.58-.54,6.5-4.7,11.12-1.49,2.53,1.74,3,4.94,3,13.12m-9.05-7.49c-2.1-1.73-5.13.7-5.16.72s0,20.91,0,20.91a4.13,4.13,0,0,0,4.75-1.41c1.68-2.72,1.8-6.09,1.79-10.94C308.26,238.42,307.94,236.33,306.88,235.45Z" transform="translate(-136.9 -171.15)" style="fill:#fff"/><path d="M385.93,248.43V229.91c0-5.54,0-7.84,0-7.84a10.52,10.52,0,0,1-3.54,1.86c-2.43.62-3-.9-6.9-.75-10,.4-14.09,9.21-14.09,19.37A17.77,17.77,0,0,0,365,253.71c1.86,2.31,7.95,5.73,12.72-1a11.35,11.35,0,0,0,.62,3.32l10.3-.36s-2.77-1.84-2.69-7.21m-13,1.44c-1.8-.42-3-4.43-3-9.64,0-5.37,1.9-10.18,4.08-11.47a3.22,3.22,0,0,1,3.54.29v7.71c0,1.27.05,8.5.05,11.22A4.73,4.73,0,0,1,372.91,249.87Z" transform="translate(-136.9 -171.15)" style="fill:#fff"/><path d="M185.17,282.86a23.32,23.32,0,0,1-1.64-6c-2.29,2.38-3.85,3.75-6.67,4.27-5.05.93-6.52-3.89-7-7.27-.28-1.83-.28-.75-.49-7.78a42.22,42.22,0,0,1,.78-10.14s.71-4.72,4.13-6.54c5.11-2.74,10.84,3.64,10.84,3.64-.21-.18,0-8.06,0-8.06S180,241.33,174.43,242c-13,1.53-16.39,14.94-16.39,26.12,0,7.69,2.2,13.81,5,17.11,2.66,3.09,13,7.46,22.1-2.36" transform="translate(-136.9 -171.15)" style="fill:#fff"/><path d="M473.59,229.46a10.38,10.38,0,0,1,0,10.5l-32.28,49.33c-1.89,2.89-5,2.89-6.87,0L402.17,240a10.43,10.43,0,0,1,0-10.5l32.27-49.33c1.89-2.89,5-2.89,6.87,0Z" transform="translate(-136.9 -171.15)" style="fill:#22357f"/><path d="M443.52,235.26a26.33,26.33,0,0,1-2.89-2.69l-.07-.08-.06-.05a24.07,24.07,0,0,1-3-3.93l-.56-.83a.36.36,0,0,1,.13-.55,1.72,1.72,0,0,0,.73-1.28v-.11a2.06,2.06,0,0,0-.67-1.44,2.87,2.87,0,0,0,1-.39,2.22,2.22,0,0,0,.71-1.62,1.26,1.26,0,0,1,.34-.83c.35-.18.81-.34,1-.69.27-.6-.18-1.07-.57-1.79a2.7,2.7,0,0,1-.18-.57,2.84,2.84,0,0,0,1.94-2.41,4.14,4.14,0,0,0-3-4.14,19.48,19.48,0,0,1-2.42-1,22.69,22.69,0,0,1,15.42-6c.34,0,.68,0,1,0a29.4,29.4,0,0,0-12-2.66c-16.29,0-29.49,12.95-29.49,28.92a29.09,29.09,0,0,0,24.88,28.55,3,3,0,0,0-.41,1.45,5.9,5.9,0,0,0,1,2.86,2.2,2.2,0,0,1,.29,1.33,4.36,4.36,0,0,0,.45,2,11.21,11.21,0,0,0,.82,1.63,2,2,0,0,0,2.22.9,1.64,1.64,0,0,0,1.18-1.63v0a15.72,15.72,0,0,1,.94-5.6c.3-.59.83-1.57,1.52-2.77a29.39,29.39,0,0,0,23.82-17.67,22.7,22.7,0,0,1-16.22,6.76l-.81,0c2-4-.21-5.72-.71-5.9,3.55-8.08-5.23-7.78-6.26-7.73" transform="translate(-136.9 -171.15)" style="fill:#fff"/><path d="M447.78,243.74c2.75.89,2.1,3.58,1,5.19s-6.72,10.8-7.91,13.24a17.09,17.09,0,0,0-1.09,6.21c0,.46-.5.44-.77,0a10.22,10.22,0,0,1-.72-1.48c-.63-1,0-2.07-.82-3.48l-.37-.62c-.93-1.61,0-2.64.5-2.65a2.75,2.75,0,0,0,1.36-.39c1.8-1.54,2.94-7.76,2.94-7.76-1.5.7-4.05,7-4.05,7-.79.55-.87-1.49-1.11-2.42s.6-1.64.49-2.73c0-.56-.2-1.71-.17-2.51s.48-.76.73-.79a9.17,9.17,0,0,1,1.51.19.52.52,0,0,0,.57-.41,11.65,11.65,0,0,1,1.66-2.82,4.77,4.77,0,0,0-2.56,0c-13.16,7.09-19.26-8.34-19.26-8.34a9.16,9.16,0,0,0,5.37,0A9.47,9.47,0,0,0,429,236.6c-.39-2.51-1.3-6.47-.91-8.37,0-1.57,1.26-3.06,1.75-4.12a1.08,1.08,0,0,0-.05-1.17.33.33,0,0,1-.05-.32,2.06,2.06,0,0,1,.15-.46c.08-.2.14-.27.27-.21l.43.16c.34-.85-.39-1.72-1.12-2.59a9.6,9.6,0,0,1-1.07-3.3c-.76.15-.86-.36-.86-.36-.6.88.07,2.83.27,3.75a5.81,5.81,0,0,1,.14,1.06,2.05,2.05,0,1,1-4.1,0c0-.13,0-.26,0-.37a1.23,1.23,0,0,0,1.43.51,1.12,1.12,0,0,0,.61-1.07c0-.92-.18-2.27-.3-3.48-.15-1.83,1.89-1.55,1.89-1.55.21-1,1.92-.83,1.92-.83a5.22,5.22,0,0,1,3.65-2.22,3.75,3.75,0,0,1,2.72.79c4.27.59,4.3,2.82,4.24,3.75s-1.21,1.2-1.21,1.2a1.22,1.22,0,0,1-.84.52s.1.73.12.8a1.81,1.81,0,0,0,.11.43,6.43,6.43,0,0,0,.6.86.28.28,0,0,1-.18.44c-.2.06-.25.09-.32.1a.15.15,0,0,0-.14.2c0,.18,0,.26,0,.3s0,.1-.1.12l-.54,0s.3.28.32.32.11.06,0,.13a.59.59,0,0,0-.23.38c-.06.3,0,.67-.32.91-.49.4-1.54.06-2.57,0-.76-.08-.23,1-.23,1,.28.17,1.63.85,1.69,1.83,0,.74-.61.51-1,1.3a1.22,1.22,0,0,0,0,1,35.63,35.63,0,0,0,4.23,5.59,30.51,30.51,0,0,0,3.49,3.2c6.86-.34,6.08,3.13,5.8,4.29a17,17,0,0,1-1,2.59m-7.62-6.15c-.37-.4-1.3-1.35-1.84-1.82-.74-.62-1.85-1.76-1.85-1.76a6.21,6.21,0,0,1-1,2.7,9.38,9.38,0,0,1,.63,2.53,9.14,9.14,0,0,1,2.5-1.11C439.45,237.8,440.29,237.7,440.16,237.59Z" transform="translate(-136.9 -171.15)" style="fill:#22357f"/><path d="M156.68,307.41a6,6,0,1,0-6.09-6,6,6,0,0,0,6.09,6m0-13.64a7.66,7.66,0,1,1-7.77,7.66A7.72,7.72,0,0,1,156.68,293.77Z" transform="translate(-136.9 -171.15)" style="fill:#fff;fill-rule:evenodd"/><path d="M156.38,300.3h.14a3.28,3.28,0,0,0,1-.1.55.55,0,0,0,.24-.15.48.48,0,0,0,.08-.29.44.44,0,0,0-.28-.47,2.68,2.68,0,0,0-.94-.11H156v1.12m4.55,4.79.11.23.1.22.05.11h-2.65l0,0,0-.09,0-.09-1.39-3H156v3.25h-2.47v-8.59h3.72a2.8,2.8,0,0,1,3.1,2.7,2.5,2.5,0,0,1-1.3,2.12Z" transform="translate(-136.9 -171.15)" style="fill:#fff;fill-rule:evenodd"/><polygon points="42.73 152.74 42.77 155.18 36.28 156.81 36.17 163.62 42.21 162.16 42.22 164.32 36.21 165.85 36.2 173.08 43.19 171.43 43.23 173.7 32.52 176.31 32.5 155.16 42.73 152.74" style="fill:#22357f"/><polygon points="49.6 151.09 49.95 172.08 46.76 172.75 46.42 151.76 49.6 151.09" style="fill:#22357f"/><path d="M204.28,325.4a6.38,6.38,0,0,0-2.43,0c-1.4.32-2.09,1.25-1.87,2.2.14.63.55,1,2,2l.58.4c1.48,1,2.85,1.94,3.25,3.69.47,2.08-.56,5-4.38,5.84a8.18,8.18,0,0,1-4.26-.19l.47-1.91a6.16,6.16,0,0,0,3.22.16,2.15,2.15,0,0,0,1.91-2.58c-.21-.92-.91-1.38-2.28-2.32l-.62-.42c-2.07-1.4-2.64-2.27-2.89-3.34-.52-2.31,1.27-4.72,4.32-5.41a8.13,8.13,0,0,1,3.37-.05Z" transform="translate(-136.9 -171.15)" style="fill:#22357f"/><path d="M219.63,334.71l-3.1.65,0-4.41c-.4,1.35-1.46,5-4.44,5.65-1.88.39-3.54-.69-4.12-3.49-.91-4.35,1-11.82,7.14-13.12a10.41,10.41,0,0,1,4.44.1ZM215,321.94c-3.31.69-4.26,7.17-3.57,10.45.07.36.37,1.79,1.62,1.53s2.05-2.42,2.23-3.18a37.78,37.78,0,0,0,1-8.84,3.22,3.22,0,0,0-1.26,0" transform="translate(-136.9 -171.15)" style="fill:#22357f"/><path d="M226.42,310.68l.18,11.21c.76-2.54,2.16-4.83,4.35-5.32s3.65,1.17,4.12,3.28c1,4.66-.77,12-7,13.36a11.08,11.08,0,0,1-4.64.05L223,311.42ZM228,331.29c3.83-.84,4-8.38,3.52-10.52-.12-.56-.5-1.73-1.57-1.49s-1.74,1.62-2.14,2.77a31.75,31.75,0,0,0-1.14,9.28,3.55,3.55,0,0,0,1.33,0" transform="translate(-136.9 -171.15)" style="fill:#22357f"/><path d="M243.82,314.26c3.25-.65,5.41,1.19,6,4.29.8,4-.62,10.58-6.09,11.67-3,.6-5.47-1.15-6.13-4.49-1.09-5.46,1.86-10.61,6.19-11.47m-.11,14.11c3-.61,2.84-8,2.41-10.16-.21-1-.84-2.38-2.21-2.1-2.84.56-3.15,7-2.51,10.17.06.33.49,2.44,2.31,2.09" transform="translate(-136.9 -171.15)" style="fill:#22357f"/><path d="M256.43,312.48l-.09,5.61c.47-2.34,1.65-6.2,4-6.63a5.8,5.8,0,0,1,.68,0l-.05,3.11a4.41,4.41,0,0,0-.83.06c-2.6.47-3.87,7.78-3.78,13.18l-3.3.6.25-15.32Z" transform="translate(-136.9 -171.15)" style="fill:#22357f"/><path d="M280.21,321.8c-2,1.66-3.58,2.69-5.53,3-2.47.39-4.72-.83-5.22-4-.74-4.69,2.67-11.42,7.57-12.18,2.38-.38,3.36,1,3.55,2.24.62,3.88-4,5.71-7.53,6.54-.36,3,.14,5.44,2.22,5.11.78-.12,1.79-.53,3.69-2.18Zm-2.36-10.32c-.12-.81-.63-1.08-1.2-1-1.11.18-2.65,1.93-3.4,5.25,2.35-.55,5-1.89,4.6-4.26" transform="translate(-136.9 -171.15)" style="fill:#22357f"/><path d="M290.69,309.14a6.71,6.71,0,0,0-2.42-.18c-1.42.2-2.18,1.08-2,2,.08.63.45,1.08,1.77,2.12l.56.44c1.38,1.13,2.67,2.17,2.92,3.95.3,2.11-1,4.91-4.85,5.45a8.05,8.05,0,0,1-4.23-.54l.62-1.87a6.11,6.11,0,0,0,3.2.44,2.17,2.17,0,0,0,2.12-2.42c-.13-.93-.79-1.45-2.07-2.5l-.59-.47c-1.95-1.57-2.45-2.48-2.6-3.57-.33-2.35,1.66-4.59,4.76-5a8.34,8.34,0,0,1,3.35.24Z" transform="translate(-136.9 -171.15)" style="fill:#22357f"/><path d="M306.06,305l-.12,15.29-3.38.4.11-15.28Zm.67-4.26-2.31,2.19-2.26-2.54,2.32-2.16Z" transform="translate(-136.9 -171.15)" style="fill:#22357f"/><path d="M313.46,303.94l-.13,4.39c.41-1.15,1.64-4.85,4.79-5.18,3.49-.36,3.52,3.15,3.47,4.66l-.29,10.54-3.4.44.27-10.59c0-1.55-.14-2.58-1.19-2.46-1.54.16-2.61,3.31-2.78,4.07a44.89,44.89,0,0,0-.95,9.37l-3.31.43.36-15.34Z" transform="translate(-136.9 -171.15)" style="fill:#22357f"/><path d="M332.5,296.65a4.72,4.72,0,0,0-1.17-.08c-1.51.13-1.83,1.45-1.9,3.51l-.1,2.13,2.54-.22-.07,1.91-2.54.23-.41,9.71c-.22,5-.42,9.44-5.12,9.85a6.47,6.47,0,0,1-1.66-.08l.1-1.85a5.71,5.71,0,0,0,1.14.05c2-.17,2.3-2.13,2.4-7.17l.21-10.23-2.23.19.07-1.9,2.17-.19.1-1.91c.06-1.58-.06-5.47,4.52-5.87a6.73,6.73,0,0,1,2.12.1Z" transform="translate(-136.9 -171.15)" style="fill:#22357f"/><path d="M338.12,301.36l-.54,15.13-3.41.41.55-15.29Zm.82-4.22-2.37,2.08-2.19-2.63,2.38-2Z" transform="translate(-136.9 -171.15)" style="fill:#22357f"/><path d="M345.51,300.69l-.18,4.37c.43-1.14,1.7-4.76,4.87-4.94,3.5-.21,3.49,3.29,3.43,4.79l-.41,10.4-3.41.28.38-10.44c.06-1.54-.11-2.58-1.17-2.51-1.54.08-2.65,3.19-2.84,3.93a45,45,0,0,0-1.06,9.29l-3.32.27.54-15.26Z" transform="translate(-136.9 -171.15)" style="fill:#22357f"/><path d="M361.14,299.67l-.36,15.13-3.42.23.36-15.23Zm.85-4.17-2.38,2-2.21-2.69,2.4-2Z" transform="translate(-136.9 -171.15)" style="fill:#22357f"/><path d="M369.8,295.16l-.13,4,2.61-.07,0,1.89-2.64.08-.29,9.23c0,1.93.29,2.07.89,2.05a3.75,3.75,0,0,0,1.68-.56l1,1.78a10,10,0,0,1-3.68.95c-1.81.05-3.43-.88-3.33-3.57l.32-9.79-2.15.06.05-1.9,2.36-.06.12-4Z" transform="translate(-136.9 -171.15)" style="fill:#22357f"/><path d="M380.64,298.53c3.31,0,5.48,2.18,6.06,5.34.75,4.08-.79,10.28-6.35,10.33-3.07,0-5.54-2.14-6.16-5.55-1-5.57,2.05-10.08,6.45-10.12m-.32,13.84c3.06,0,3-7.34,2.6-9.53-.19-1.07-.82-2.49-2.22-2.48-2.88,0-3.29,6.28-2.69,9.53.06.34.45,2.5,2.31,2.48" transform="translate(-136.9 -171.15)" style="fill:#22357f"/></svg>